<svg xmlns="http://www.w3.org/2000/svg" viewBox="0 0 1440 900" width="1440" height="900" role="img" ><rect width="1440" height="900" fill="#F7F2E7"/><rect width="1440" height="40" fill="#E8E2D7"/><circle cx="22" cy="20" r="5" fill="#C9BFB0"/><circle cx="42" cy="20" r="5" fill="#C9BFB0"/><circle cx="62" cy="20" r="5" fill="#C9BFB0"/><rect x="250" y="9" width="940" height="22" rx="11" fill="#FBF8F2"/><text x="720" y="24" text-anchor="middle" font-family="IBM Plex Mono, monospace" font-size="10" fill="#8A8277">firstin.app/creator</text><rect y="40" width="1440" height="860" fill="#FBF8F2"/><rect y="40" width="252" height="860" fill="#141210"/><g transform="translate(34 64) scale(0.75)"><g fill="#F7F2E7"><rect x="13" y="9" width="10" height="46" rx="1.2"/><rect x="13" y="9" width="40" height="10" rx="1.2"/><rect x="13" y="27" width="27" height="10" rx="1.2"/></g><circle cx="55" cy="14" r="7" fill="#C8962F"/></g><text x="89" y="101" font-family="Space Grotesk, Arial, sans-serif" font-size="22" font-weight="600" fill="#F7F2E7">FirstIn</text><text x="34" y="166" font-family="IBM Plex Mono, monospace" font-size="10" letter-spacing="1.7" fill="#8A8277">CREATOR SPACE</text><rect x="21" y="188" width="210" height="43" rx="8" fill="#292620"/><circle cx="42" cy="209" r="3" fill="#C8962F"/><text x="57" y="214" font-family="Inter, Arial, sans-serif" font-size="13" fill="#F7F2E7">Overview</text><text x="57" y="260" font-family="Inter, Arial, sans-serif" font-size="13" fill="#8A8277">Your profile</text><text x="57" y="306" font-family="Inter, Arial, sans-serif" font-size="13" fill="#8A8277">Supporters</text><text x="57" y="352" font-family="Inter, Arial, sans-serif" font-size="13" fill="#8A8277">Revenue</text><text x="300" y="118" font-family="Fraunces, Georgia, serif" font-size="36" fill="#141210">Your early circle.</text><text x="302" y="150" font-family="Inter, Arial, sans-serif" font-size="13" fill="#8A8277">A clear view of the people who found you first.</text><rect x="300" y="190" width="286" height="150" rx="12" fill="#FFFFFF" stroke="#E7E0D2"/><text x="326" y="228" font-family="IBM Plex Mono, monospace" font-size="10" letter-spacing="1.5" fill="#8A8277">BADGES CLAIMED</text><text x="326" y="289" font-family="Space Grotesk, Arial, sans-serif" font-weight="600" font-size="45" fill="#141210">42<tspan font-size="23" fill="#8A8277"> / 100</tspan></text><rect x="622" y="190" width="510" height="150" rx="12" fill="#FFFFFF" stroke="#E7E0D2"/><text x="650" y="228" font-family="IBM Plex Mono, monospace" font-size="10" letter-spacing="1.5" fill="#8A8277">TIP SPLIT</text><rect x="650" y="258" width="440" height="16" rx="8" fill="#DCE9E6"/><path d="M658 258h336v16H658a8 8 0 0 1 0-16" fill="#C8962F"/><text x="650" y="306" font-family="Inter, Arial, sans-serif" font-size="12" fill="#3A362F">80% creator</text><text x="1090" y="306" text-anchor="end" font-family="Inter, Arial, sans-serif" font-size="12" fill="#1E5B52">20% supporters</text><rect x="1168" y="190" width="238" height="150" rx="12" fill="#141210"/><text x="1194" y="228" font-family="IBM Plex Mono, monospace" font-size="10" letter-spacing="1.5" fill="#8A8277">PENDING TIPS</text><text x="1194" y="282" font-family="Space Grotesk, Arial, sans-serif" font-weight="600" font-size="31" fill="#F7F2E7">1.24 MON</text><text x="1194" y="311" font-family="Inter, Arial, sans-serif" font-size="11" fill="#C8962F">Ready to distribute</text><rect x="300" y="376" width="1106" height="350" rx="12" fill="#FFFFFF" stroke="#E7E0D2"/><text x="328" y="418" font-family="IBM Plex Mono, monospace" font-size="11" letter-spacing="1.3" fill="#141210">RECENT SUPPORTERS</text><text x="328" y="472" font-family="IBM Plex Mono, monospace" font-size="13" fill="#3A362F">0x9F2…A41</text><text x="764" y="472" font-family="Inter, Arial, sans-serif" font-size="12" fill="#8A8277">Early supporter</text><text x="1348" y="472" text-anchor="end" font-family="IBM Plex Mono, monospace" font-size="12" fill="#8A8277">CLAIMED</text><line x1="328" y1="495" x2="1376" y2="495" stroke="#E7E0D2"/><text x="328" y="536" font-family="IBM Plex Mono, monospace" font-size="13" fill="#3A362F">0x1B7…E09</text><text x="764" y="536" font-family="Inter, Arial, sans-serif" font-size="12" fill="#8A8277">Early supporter</text><text x="1348" y="536" text-anchor="end" font-family="IBM Plex Mono, monospace" font-size="12" fill="#8A8277">CLAIMED</text><text x="328" y="690" font-family="Inter, Arial, sans-serif" font-size="10" fill="#8A8277">CONCEPT RENDER · SAMPLE DATA</text></svg>
